<svg xmlns="http://www.w3.org/2000/svg" version="1.1" xmlns:xlink="http://www.w3.org/1999/xlink" width="1000" height="1000"><style>
    #light-icon {
      display: inline;
    }
    #dark-icon {
      display: none;
    }

    @media (prefers-color-scheme: dark) {
      #light-icon {
        display: none;
      }
      #dark-icon {
        display: inline;
      }
    }
  </style><g id="light-icon"><svg xmlns="http://www.w3.org/2000/svg" version="1.1" xmlns:xlink="http://www.w3.org/1999/xlink" width="1000" height="1000"><g><g transform="matrix(1.0460251046025104,0,0,1.0460251046025104,93.6192468619247,0)"><svg xmlns="http://www.w3.org/2000/svg" version="1.1" xmlns:xlink="http://www.w3.org/1999/xlink" width="777" height="956"><svg width="777" height="956" xmlns="http://www.w3.org/2000/svg" version="1.1">
 <g>
  <title>Layer 1</title>
  <!-- Main dark indigo - replacing teal (#0788BE) -->
  <path d="m531,0l108,0l98,1l40,0l0,2l-5,4l-7,8l-11,13l-12,14l-9,10l-7,8l-11,13l-9,10l-8,10l-9,10l-9,11l-12,13l-8,10l-12,14l-9,10l-9,11l-12,14l-11,13l-7,8l-11,13l-12,14l-10,11l-9,11l-9,10l-9,11l-12,14l-11,13l-24,28l-9,11l-13,15l-9,11l-7,7l-7,9l-10,11l-7,9l-8,9l-7,8l-22,26l-7,8l-9,11l-24,28l-11,13l-12,14l-8,10l-10,11l-9,11l-13,15l-9,11l-11,13l-10,11l-8,10l-7,7l-8,11l-7,7l-7,9l-10,11l-1,21l0,274l-1,1l-212,0l0,-953l212,0l1,1l1,322l5,-5l8,-9l7,-8l13,-16l9,-10l8,-10l9,-10l9,-11l9,-10l8,-10l13,-15l10,-12l9,-11l11,-13l9,-10l8,-10l8,-9l7,-8l12,-14l9,-11l12,-14l7,-8l9,-11l9,-10l8,-10l9,-10l14,-16l7,-9l9,-10l9,-11l4,-3l39,-1zm-499,34l0,890l93,0l1,-84l0,-95l-11,-9l-7,-10l-1,-3l0,-12l3,-8l7,-8l8,-5l1,-61l5,-9l9,-10l8,-10l10,-11l9,-11l24,-28l11,-13l10,-12l14,-16l9,-11l11,-13l9,-10l9,-11l11,-12l7,-9l3,-4l-1,-7l-1,-4l0,-8l4,-11l2,-4l4,-2l7,-4l2,-1l15,0l12,6l6,9l2,8l-1,11l-5,9l-8,7l-9,3l-7,0l-10,-1l-24,28l-11,13l-9,11l-13,15l-11,13l-7,8l-11,13l-9,11l-9,10l-9,11l-14,16l-14,17l-7,7l-6,9l-1,22l0,35l4,4l6,4l5,6l3,7l1,9l-3,10l-12,12l-3,2l-1,40l0,140l23,1l14,0l1,-4l0,-268l3,-5l11,-13l9,-11l14,-17l11,-12l7,-9l13,-15l8,-9l6,-8l10,-11l9,-11l13,-15l11,-13l9,-11l9,-10l7,-8l12,-14l13,-16l7,-8l13,-16l9,-10l9,-11l12,-14l8,-9l0,-2l2,0l9,-11l10,-11l9,-11l9,-10l8,-10l9,-11l7,-7l11,-14l8,-9l9,-11l9,-10l9,-11l12,-14l13,-15l7,-8l22,-26l7,-8l10,-12l7,-8l9,-10l9,-11l12,-14l9,-11l9,-10l8,-10l12,-14l8,-9l9,-11l9,-10l7,-8l3,-3l0,-2l-128,1l-18,20l-7,8l-12,14l-9,10l-7,8l-4,6l2,9l0,11l-4,9l-6,7l-10,4l-19,0l-8,11l-9,9l-9,11l-8,10l0,2l55,0l11,-12l11,-13l9,-10l9,-11l12,-14l8,-9l4,-5l-1,-5l-2,-12l3,-12l7,-8l12,-5l10,0l11,4l7,8l4,11l-1,10l-5,10l-4,5l-5,3l-9,2l-14,-1l-8,8l-8,10l-9,10l-9,11l-12,14l-9,11l-11,12l-3,4l-72,1l-1,1l0,59l7,-6l9,-10l7,-8l11,-12l7,-1l3,3l2,5l-6,9l-9,11l-7,7l-8,10l-11,13l-7,8l-11,13l-12,14l-3,4l3,17l-4,13l-9,9l-6,3l-5,1l-8,0l-8,-3l-8,-7l-5,-8l-1,-4l0,-11l3,-8l6,-7l7,-5l3,-1l20,0l9,-10l8,-10l5,-6l1,-2l1,-94l13,-16l13,-15l9,-10l8,-10l5,-5l-1,-8l-1,-3l0,-12l5,-10l8,-7l9,-3l7,0l9,1l9,-10l7,-8l9,-10l7,-8l11,-13l5,-5l0,-2l-45,0l-5,1l-8,10l-11,13l-8,9l-9,11l-12,14l-7,8l-12,14l-9,11l-13,15l-8,9l-9,11l-13,15l-11,13l-9,11l-9,10l-9,11l-11,13l-9,11l-12,14l-9,10l-9,11l-13,15l-12,14l-22,26l-7,8l-9,11l-13,15l-24,28l-7,8l-9,12l-1,-382l-94,0l-1,2l0,142l-16,0l0,-143l-1,-1l-36,0zm557,49l-7,4l-2,5l1,8l4,5l7,1l6,-3l3,-3l1,-3l0,-7l-4,-5l-5,-2l-4,0zm-100,22l-6,7l1,8l4,5l2,1l8,0l7,-6l1,-5l-3,-6l-5,-4l-9,0zm-106,220l-5,3l-4,6l1,7l6,7l5,1l8,-4l3,-9l-4,-8l-5,-3l-5,0zm-77,88l-6,5l-1,2l0,7l4,6l4,2l9,-1l5,-6l0,-9l-5,-5l-2,-1l-8,0zm-176,292l-6,4l-2,3l0,8l4,6l3,2l8,0l6,-5l2,-5l-1,-7l-6,-5l-2,-1l-6,0z" fill="#4338ca" id="svg_1"></path>
  <!-- Accent - light indigo/blue -->
  <!-- K parts - updated to blue-purple #6366f1 -->
  <path d="m531,0l108,0l98,1l40,0l0,2l-5,4l-7,8l-11,13l-12,14l-9,10l-7,8l-11,13l-9,10l-8,10l-9,10l-9,11l-12,13l-8,10l-12,14l-9,10l-9,11l-12,14l-11,13l-7,8l-11,13l-12,14l-10,11l-9,11l-9,10l-9,11l-12,14l-7,8l-3,0l-5,1l-4,-3l-8,-8l-3,-7l4,-9l1,-4l9,-10l9,-11l12,-14l13,-15l7,-8l22,-26l7,-8l10,-12l7,-8l9,-10l9,-11l12,-14l9,-11l9,-10l8,-10l12,-14l8,-9l9,-11l9,-10l7,-8l4,-5l-2,1l-126,1l-7,8l-10,11l-7,8l-12,14l-9,10l-7,8l-4,6l2,9l0,11l-4,9l-7,8l-10,4l-14,0l-5,-1l-2,4l-6,8l-8,8l-9,11l-8,10l-1,2l55,-1l9,-10l12,-14l9,-10l9,-11l12,-14l8,-9l4,-5l-1,-5l-2,-12l3,-12l7,-8l10,-5l3,-1l10,0l11,4l7,7l4,9l1,9l-3,10l-6,9l-7,5l-9,2l-14,-1l-7,7l-8,10l-9,10l-9,11l-12,14l-9,11l-11,12l-4,5l-72,1l0,58l9,-9l9,-11l15,-16l7,-1l4,4l2,5l-6,9l-9,11l-7,7l-8,10l-11,13l-7,8l-11,13l-12,14l-3,4l3,17l-4,13l-10,10l-6,3l-5,1l-8,0l-8,-3l-9,-8l-5,-8l-1,-4l0,-11l3,-8l7,-8l7,-5l3,-1l20,0l8,-9l8,-10l5,-6l1,-2l1,-94l13,-16l13,-15l9,-10l8,-10l5,-5l-1,-8l-1,-3l0,-12l5,-10l7,-7l11,-4l7,0l9,1l8,-9l7,-8l9,-10l7,-8l11,-13l6,-7l-3,1l-47,0l-2,4l-11,13l-7,8l-11,13l-9,11l-12,14l-9,10l-9,11l-13,15l-7,8l-11,13l-9,11l-6,7l-3,-1l-4,2l-5,-1l-2,-3l-3,-1l0,-3l-4,-1l-3,-6l1,-7l-7,7l-2,-1l8,-8l7,-9l10,-11l9,-11l22,-26l24,-28l7,-8l11,-13l9,-10l7,-9l9,-10l9,-11l4,-3l39,-1zm58,83l-7,4l-2,5l1,8l4,5l7,1l6,-3l3,-3l1,-3l0,-7l-4,-5l-5,-2l-4,0zm-100,22l-6,7l1,8l4,5l2,1l8,0l7,-6l1,-5l-3,-6l-5,-4l-9,0zm-106,220l-5,3l-4,6l1,7l6,7l5,1l8,-4l3,-9l-4,-8l-5,-3l-5,0z" fill="#6366f1" id="svg_4"></path>
  <path d="m399,502l5,5l6,8l11,13l9,11l12,14l9,11l12,14l11,14l9,10l8,10l9,10l7,9l12,14l9,11l9,10l8,10l14,17l12,14l9,11l11,13l11,14l10,11l9,11l11,13l9,11l12,14l9,11l13,15l8,10l11,13l8,10l11,13l10,12l9,11l8,10l13,15l12,14l11,14l0,3l-275,0l-14,-15l-7,-9l-10,-11l-6,-8l-14,-17l-13,-15l-11,-14l-13,-15l-7,-8l-9,-11l-10,-12l-7,-8l-13,-16l-11,-13l-9,-11l-11,-13l-7,-9l-11,-13l-9,-11l-8,-9l-9,-11l-9,-10l-11,-14l-11,-12l-2,-3l1,-5l13,-13l5,-6l4,-1l9,11l13,15l9,11l13,16l13,15l9,11l8,10l24,28l11,14l9,10l9,11l11,13l9,11l12,14l8,10l11,13l9,11l11,13l9,11l11,13l9,11l6,7l2,1l190,0l-8,-11l-8,-9l-8,-10l-14,-17l-10,-11l-11,-14l-11,-13l-10,-11l-7,-9l-10,-12l-8,-10l-8,-9l-8,-10l-11,-13l-11,-14l-9,-10l-9,-11l-11,-13l-9,-11l-12,-14l-13,-15l-8,-10l-12,-14l-9,-11l-14,-17l-9,-11l-13,-15l-14,-17l-12,-14l-9,-11l-11,-13l-9,-11l-2,-3l1,-5l7,-8l11,-13l1,-1z" fill="#6366f1" id="svg_5"></path>
  <!-- Medium purple parts - updated to #6366f1 -->
  <path d="m127,71l13,0l9,4l7,6l4,8l2,8l0,7l-5,10l-4,5l-7,5l-2,0l-1,424l-11,13l-9,11l-12,14l-9,10l-8,10l-7,8l0,218l9,6l6,9l2,5l0,14l-5,10l-5,5l-8,4l-5,1l-8,0l-11,-4l-8,-7l-4,-10l0,-12l3,-8l6,-7l8,-5l1,-223l6,-8l10,-11l9,-11l12,-15l2,0l2,-4l9,-11l6,-7l1,-137l0,-281l-6,-2l-6,-5l-6,-11l-1,-4l0,-9l3,-9l6,-8l6,-4l6,-2zm5,16l-6,3l-3,3l-1,8l3,6l7,3l7,-1l5,-5l1,-2l-1,-9l-6,-5l-6,-1zm-59,761l-6,5l0,11l7,6l6,0l6,-4l2,-3l0,-9l-4,-5l-2,-1l-9,0z" fill="#6366f1" id="svg_6"></path>
  <path d="m299,397l15,0l12,6l6,8l3,10l-1,11l-5,9l-9,8l-9,3l-7,0l-10,-1l-11,13l-12,14l-11,13l-9,11l-13,15l-11,13l-7,8l-11,13l-9,11l-9,10l-9,11l-14,16l-14,17l-7,7l-6,9l-1,22l0,37l5,2l8,7l5,10l1,9l-3,10l-13,13l-2,1l-1,40l-1,139l-17,0l0,-177l-10,-8l-7,-9l-2,-5l0,-12l3,-8l8,-9l7,-4l1,-61l5,-9l9,-10l8,-10l10,-11l9,-11l24,-28l11,-13l10,-12l14,-16l9,-11l11,-13l9,-10l9,-11l11,-12l7,-9l3,-4l-1,-7l-1,-4l0,-8l4,-11l5,-5l6,-5l5,-2zm4,16l-6,5l-1,2l0,7l4,6l4,2l9,-1l5,-6l0,-9l-5,-5l-2,-1l-8,0zm-176,292l-6,4l-2,3l0,8l4,6l3,2l8,0l6,-5l2,-5l-1,-7l-6,-5l-2,-1l-6,0z" fill="#6366f1" id="svg_12"></path>
  <path d="m315,599l7,6l7,9l11,13l9,11l13,15l11,14l10,11l10,13l10,11l7,9l0,2l72,1l8,7l9,10l11,14l9,10l9,11l13,16l8,10l9,10l8,10l11,13l4,6l5,-1l16,0l8,4l7,8l4,11l0,8l-3,9l-4,6l-6,5l-9,3l-13,0l-10,-5l-6,-7l-4,-8l0,-13l2,-5l-1,-5l-11,-13l-12,-14l-9,-11l-14,-17l-10,-12l-8,-10l-11,-13l-11,-14l-3,-4l-5,-1l-39,0l-29,-1l-6,-5l-9,-11l-9,-10l-27,-33l-12,-14l-11,-14l-12,-14l-9,-11l-7,-10l4,-5l8,-5zm276,247l-6,3l-3,5l0,7l5,6l5,2l6,-1l6,-5l1,-9l-4,-6l-4,-2l-6,0z" fill="#6366f1" id="svg_16"></path>
  <path d="m70,194l13,0l9,4l7,7l5,12l0,13l-5,10l-9,8l-3,2l0,199l10,7l6,10l1,3l0,14l-5,10l-7,7l-9,3l-14,0l-8,-4l-5,-4l-5,-9l-2,-7l0,-8l4,-11l7,-7l8,-5l0,-197l-13,-11l-4,-6l-2,-7l0,-9l4,-11l8,-8l9,-5zm2,17l-6,7l0,8l3,6l4,2l7,0l8,-7l1,-5l-3,-7l-5,-4l-9,0zm4,253l-7,3l-3,5l0,7l3,5l5,3l6,0l6,-4l2,-3l0,-8l-4,-6l-5,-2l-3,0z" fill="#6366f1" id="svg_17"></path>
  <path d="m501,271l2,3l-4,9l4,8l6,3l1,3l5,2l5,-2l1,3l-11,12l-9,11l-13,15l-22,26l-14,16l-9,11l-8,9l-7,8l-9,11l-9,10l-9,11l-24,28l-2,1l2,-4l3,-5l2,0l1,-4l8,-10l-2,-1l0,-2l-2,0l-4,-9l-2,-4l0,-10l1,-2l2,0l-1,-8l9,-11l12,-14l9,-11l2,0l2,-4l9,-10l9,-11l13,-15l12,-14l8,-10l7,-7l11,-14l8,-9l7,-9z" fill="#6366f1" id="svg_18"></path>
  <path d="m391,235l2,2l-5,36l-4,26l-4,-1l-10,-9l-4,-3l-4,1l-7,8l-7,9l-8,9l-7,9l-10,11l-9,11l-22,26l-13,15l-9,11l-8,10l-7,7l-7,9l-12,14l-9,11l-9,10l-7,9l-5,4l-7,0l-5,-6l1,-7l9,-10l13,-16l10,-11l9,-11l11,-13l12,-14l9,-10l11,-14l10,-11l9,-11l7,-8l9,-11l22,-26l9,-11l5,-6l0,-2l-11,-9l-5,-6l12,-5l25,-10l20,-7z" fill="#6366f1" id="svg_19"></path>
  <path d="m365,151l1,3l-1,5l2,6l4,1l0,3l4,1l2,3l6,-1l3,-1l0,4l-11,13l-9,11l-9,10l-9,11l-11,13l-9,11l-12,14l-9,10l-7,8l-5,4l-8,-1l-2,-3l0,-4l-7,-2l-3,-5l1,-2l2,0l0,-4l-4,4l-4,2l-2,-1l2,-4l10,-11l9,-11l11,-13l12,-14l10,-12l9,-11l11,-13l9,-10l5,-6l8,-7l1,-1z" fill="#6366f1" id="svg_20"></path>
  <path d="m455,769l4,1l13,16l12,14l11,13l7,8l4,-1l11,-9l3,-3l2,0l4,25l5,36l0,3l-5,-1l-20,-8l-28,-11l-6,-3l4,-5l10,-8l2,-3l-9,-11l-7,-8l-11,-13l-9,-11l-7,-9l1,-4l9,-8z" fill="#6366f1" id="svg_26"></path>
  <path d="m368,586l10,3l12,5l31,11l6,3l-2,4l-14,11l1,4l11,13l18,22l7,8l0,5l-9,7l-5,-1l-9,-10l-11,-14l-11,-13l-6,-8l-4,2l-12,12l-3,-1l-4,-15l-6,-40l0,-8z" fill="#6366f1" id="svg_27"></path>
  <path d="m481,343l2,1l-12,14l-9,11l-7,7l-7,9l-10,11l-7,9l-8,9l-7,8l-22,26l-7,8l-9,11l-3,2l2,-4l3,-5l2,0l1,-4l8,-10l-2,-1l0,-2l-2,0l-4,-9l-2,-4l0,-10l1,-2l2,0l-1,-8l9,-11l12,-14l9,-11l2,0l2,-4l7,-8l1,2l-1,6l10,3l7,6l4,2l5,-3l6,-9l11,-11l3,-5l6,-5l5,-5z" fill="#6366f1" id="svg_28"></path>
  <path d="m69,34l16,1l1,1l0,142l-1,1l-16,0l-1,-1l0,-141l1,-3z" fill="#6366f1" id="svg_29"></path>
  <path d="m276,259l2,0l-1,9l6,3l3,0l0,5l5,3l5,-1l3,0l-9,10l-9,11l-9,10l-9,11l-7,8l-5,5l-2,0l-6,5l-2,0l-2,-7l0,-8l-3,-5l0,-5l-2,0l-2,-4l-3,-1l7,-7l10,-13l10,-11l8,-10l5,-4l3,0l4,-4z" fill="#6366f1" id="svg_31"></path>
  <path d="m365,151l1,3l-1,5l2,6l4,1l0,3l4,1l2,3l6,-1l3,-1l0,4l-11,13l-9,11l-5,6l-4,2l-15,14l-3,0l0,6l-3,2l-3,0l-1,-5l-1,-3l-5,-2l-3,-3l-1,-10l4,-7l1,-3l-2,-1l9,-10l7,-9l10,-11l5,-6l8,-7l1,-1z" fill="#6366f1" id="svg_33"></path>
  <path d="m382,411l2,0l0,7l-2,0l0,12l4,7l1,6l2,0l0,2l3,1l-9,11l-1,3l-2,0l-2,5l-2,4l-6,8l-11,12l-4,4l0,-3l-9,6l-1,5l-3,0l-1,3l-2,-1l2,-7l2,0l2,-4l-3,-10l-1,-9l0,-2l0,-3l0,-5l-3,0l9,-10l10,-13l10,-11l7,-9l8,-9z" fill="#6366f1" id="svg_35"></path>
  <path d="m180,219l1,0l1,10l0,180l3,0l-1,4l-4,4l0,-198z" fill="#6366f1" id="svg_48"></path>
  <path d="m447,335l2,0l-1,7l-1,2l-3,0l0,2l-6,5l-3,5l-6,5l-3,-1l9,-11l12,-14z" fill="#6366f1" id="svg_49"></path>
  <path d="m385,455l1,2l-8,10l-3,2l2,-4l3,-5l2,0l2,-4l1,-1z" fill="#6366f1" id="svg_50"></path>
  <path d="m181,403l1,0l0,6l3,0l-1,4l-4,4l1,-14z" fill="#6366f1" id="svg_51"></path>
  <path d="m473,305l2,0l-2,4l-6,6l-2,0l2,-4l6,-6z" fill="#6366f1" id="svg_52"></path>
 </g>

</svg></svg></g></g></svg></g><g id="dark-icon"><svg xmlns="http://www.w3.org/2000/svg" version="1.1" xmlns:xlink="http://www.w3.org/1999/xlink" width="1000" height="1000"><g><g transform="matrix(1.0460251046025104,0,0,1.0460251046025104,93.6192468619247,0)"><svg xmlns="http://www.w3.org/2000/svg" version="1.1" xmlns:xlink="http://www.w3.org/1999/xlink" width="777" height="956"><svg width="777" height="956" xmlns="http://www.w3.org/2000/svg" version="1.1">
 <g>
  <title>Layer 1</title>
  <!-- Main dark indigo - replacing teal (#0788BE) -->
  <path d="m531,0l108,0l98,1l40,0l0,2l-5,4l-7,8l-11,13l-12,14l-9,10l-7,8l-11,13l-9,10l-8,10l-9,10l-9,11l-12,13l-8,10l-12,14l-9,10l-9,11l-12,14l-11,13l-7,8l-11,13l-12,14l-10,11l-9,11l-9,10l-9,11l-12,14l-11,13l-24,28l-9,11l-13,15l-9,11l-7,7l-7,9l-10,11l-7,9l-8,9l-7,8l-22,26l-7,8l-9,11l-24,28l-11,13l-12,14l-8,10l-10,11l-9,11l-13,15l-9,11l-11,13l-10,11l-8,10l-7,7l-8,11l-7,7l-7,9l-10,11l-1,21l0,274l-1,1l-212,0l0,-953l212,0l1,1l1,322l5,-5l8,-9l7,-8l13,-16l9,-10l8,-10l9,-10l9,-11l9,-10l8,-10l13,-15l10,-12l9,-11l11,-13l9,-10l8,-10l8,-9l7,-8l12,-14l9,-11l12,-14l7,-8l9,-11l9,-10l8,-10l9,-10l14,-16l7,-9l9,-10l9,-11l4,-3l39,-1zm-499,34l0,890l93,0l1,-84l0,-95l-11,-9l-7,-10l-1,-3l0,-12l3,-8l7,-8l8,-5l1,-61l5,-9l9,-10l8,-10l10,-11l9,-11l24,-28l11,-13l10,-12l14,-16l9,-11l11,-13l9,-10l9,-11l11,-12l7,-9l3,-4l-1,-7l-1,-4l0,-8l4,-11l2,-4l4,-2l7,-4l2,-1l15,0l12,6l6,9l2,8l-1,11l-5,9l-8,7l-9,3l-7,0l-10,-1l-24,28l-11,13l-9,11l-13,15l-11,13l-7,8l-11,13l-9,11l-9,10l-9,11l-14,16l-14,17l-7,7l-6,9l-1,22l0,35l4,4l6,4l5,6l3,7l1,9l-3,10l-12,12l-3,2l-1,40l0,140l23,1l14,0l1,-4l0,-268l3,-5l11,-13l9,-11l14,-17l11,-12l7,-9l13,-15l8,-9l6,-8l10,-11l9,-11l13,-15l11,-13l9,-11l9,-10l7,-8l12,-14l13,-16l7,-8l13,-16l9,-10l9,-11l12,-14l8,-9l0,-2l2,0l9,-11l10,-11l9,-11l9,-10l8,-10l9,-11l7,-7l11,-14l8,-9l9,-11l9,-10l9,-11l12,-14l13,-15l7,-8l22,-26l7,-8l10,-12l7,-8l9,-10l9,-11l12,-14l9,-11l9,-10l8,-10l12,-14l8,-9l9,-11l9,-10l7,-8l3,-3l0,-2l-128,1l-18,20l-7,8l-12,14l-9,10l-7,8l-4,6l2,9l0,11l-4,9l-6,7l-10,4l-19,0l-8,11l-9,9l-9,11l-8,10l0,2l55,0l11,-12l11,-13l9,-10l9,-11l12,-14l8,-9l4,-5l-1,-5l-2,-12l3,-12l7,-8l12,-5l10,0l11,4l7,8l4,11l-1,10l-5,10l-4,5l-5,3l-9,2l-14,-1l-8,8l-8,10l-9,10l-9,11l-12,14l-9,11l-11,12l-3,4l-72,1l-1,1l0,59l7,-6l9,-10l7,-8l11,-12l7,-1l3,3l2,5l-6,9l-9,11l-7,7l-8,10l-11,13l-7,8l-11,13l-12,14l-3,4l3,17l-4,13l-9,9l-6,3l-5,1l-8,0l-8,-3l-8,-7l-5,-8l-1,-4l0,-11l3,-8l6,-7l7,-5l3,-1l20,0l9,-10l8,-10l5,-6l1,-2l1,-94l13,-16l13,-15l9,-10l8,-10l5,-5l-1,-8l-1,-3l0,-12l5,-10l8,-7l9,-3l7,0l9,1l9,-10l7,-8l9,-10l7,-8l11,-13l5,-5l0,-2l-45,0l-5,1l-8,10l-11,13l-8,9l-9,11l-12,14l-7,8l-12,14l-9,11l-13,15l-8,9l-9,11l-13,15l-11,13l-9,11l-9,10l-9,11l-11,13l-9,11l-12,14l-9,10l-9,11l-13,15l-12,14l-22,26l-7,8l-9,11l-13,15l-24,28l-7,8l-9,12l-1,-382l-94,0l-1,2l0,142l-16,0l0,-143l-1,-1l-36,0zm557,49l-7,4l-2,5l1,8l4,5l7,1l6,-3l3,-3l1,-3l0,-7l-4,-5l-5,-2l-4,0zm-100,22l-6,7l1,8l4,5l2,1l8,0l7,-6l1,-5l-3,-6l-5,-4l-9,0zm-106,220l-5,3l-4,6l1,7l6,7l5,1l8,-4l3,-9l-4,-8l-5,-3l-5,0zm-77,88l-6,5l-1,2l0,7l4,6l4,2l9,-1l5,-6l0,-9l-5,-5l-2,-1l-8,0zm-176,292l-6,4l-2,3l0,8l4,6l3,2l8,0l6,-5l2,-5l-1,-7l-6,-5l-2,-1l-6,0z" fill="#eaebff" id="svg_1"></path>
  <!-- Accent - light indigo/blue -->
  <!-- K parts - updated to blue-purple #6366f1 -->
  <path d="m531,0l108,0l98,1l40,0l0,2l-5,4l-7,8l-11,13l-12,14l-9,10l-7,8l-11,13l-9,10l-8,10l-9,10l-9,11l-12,13l-8,10l-12,14l-9,10l-9,11l-12,14l-11,13l-7,8l-11,13l-12,14l-10,11l-9,11l-9,10l-9,11l-12,14l-7,8l-3,0l-5,1l-4,-3l-8,-8l-3,-7l4,-9l1,-4l9,-10l9,-11l12,-14l13,-15l7,-8l22,-26l7,-8l10,-12l7,-8l9,-10l9,-11l12,-14l9,-11l9,-10l8,-10l12,-14l8,-9l9,-11l9,-10l7,-8l4,-5l-2,1l-126,1l-7,8l-10,11l-7,8l-12,14l-9,10l-7,8l-4,6l2,9l0,11l-4,9l-7,8l-10,4l-14,0l-5,-1l-2,4l-6,8l-8,8l-9,11l-8,10l-1,2l55,-1l9,-10l12,-14l9,-10l9,-11l12,-14l8,-9l4,-5l-1,-5l-2,-12l3,-12l7,-8l10,-5l3,-1l10,0l11,4l7,7l4,9l1,9l-3,10l-6,9l-7,5l-9,2l-14,-1l-7,7l-8,10l-9,10l-9,11l-12,14l-9,11l-11,12l-4,5l-72,1l0,58l9,-9l9,-11l15,-16l7,-1l4,4l2,5l-6,9l-9,11l-7,7l-8,10l-11,13l-7,8l-11,13l-12,14l-3,4l3,17l-4,13l-10,10l-6,3l-5,1l-8,0l-8,-3l-9,-8l-5,-8l-1,-4l0,-11l3,-8l7,-8l7,-5l3,-1l20,0l8,-9l8,-10l5,-6l1,-2l1,-94l13,-16l13,-15l9,-10l8,-10l5,-5l-1,-8l-1,-3l0,-12l5,-10l7,-7l11,-4l7,0l9,1l8,-9l7,-8l9,-10l7,-8l11,-13l6,-7l-3,1l-47,0l-2,4l-11,13l-7,8l-11,13l-9,11l-12,14l-9,10l-9,11l-13,15l-7,8l-11,13l-9,11l-6,7l-3,-1l-4,2l-5,-1l-2,-3l-3,-1l0,-3l-4,-1l-3,-6l1,-7l-7,7l-2,-1l8,-8l7,-9l10,-11l9,-11l22,-26l24,-28l7,-8l11,-13l9,-10l7,-9l9,-10l9,-11l4,-3l39,-1zm58,83l-7,4l-2,5l1,8l4,5l7,1l6,-3l3,-3l1,-3l0,-7l-4,-5l-5,-2l-4,0zm-100,22l-6,7l1,8l4,5l2,1l8,0l7,-6l1,-5l-3,-6l-5,-4l-9,0zm-106,220l-5,3l-4,6l1,7l6,7l5,1l8,-4l3,-9l-4,-8l-5,-3l-5,0z" fill="#eaebff" id="svg_4"></path>
  <path d="m399,502l5,5l6,8l11,13l9,11l12,14l9,11l12,14l11,14l9,10l8,10l9,10l7,9l12,14l9,11l9,10l8,10l14,17l12,14l9,11l11,13l11,14l10,11l9,11l11,13l9,11l12,14l9,11l13,15l8,10l11,13l8,10l11,13l10,12l9,11l8,10l13,15l12,14l11,14l0,3l-275,0l-14,-15l-7,-9l-10,-11l-6,-8l-14,-17l-13,-15l-11,-14l-13,-15l-7,-8l-9,-11l-10,-12l-7,-8l-13,-16l-11,-13l-9,-11l-11,-13l-7,-9l-11,-13l-9,-11l-8,-9l-9,-11l-9,-10l-11,-14l-11,-12l-2,-3l1,-5l13,-13l5,-6l4,-1l9,11l13,15l9,11l13,16l13,15l9,11l8,10l24,28l11,14l9,10l9,11l11,13l9,11l12,14l8,10l11,13l9,11l11,13l9,11l11,13l9,11l6,7l2,1l190,0l-8,-11l-8,-9l-8,-10l-14,-17l-10,-11l-11,-14l-11,-13l-10,-11l-7,-9l-10,-12l-8,-10l-8,-9l-8,-10l-11,-13l-11,-14l-9,-10l-9,-11l-11,-13l-9,-11l-12,-14l-13,-15l-8,-10l-12,-14l-9,-11l-14,-17l-9,-11l-13,-15l-14,-17l-12,-14l-9,-11l-11,-13l-9,-11l-2,-3l1,-5l7,-8l11,-13l1,-1z" fill="#eaebff" id="svg_5"></path>
  <!-- Medium purple parts - updated to #6366f1 -->
  <path d="m127,71l13,0l9,4l7,6l4,8l2,8l0,7l-5,10l-4,5l-7,5l-2,0l-1,424l-11,13l-9,11l-12,14l-9,10l-8,10l-7,8l0,218l9,6l6,9l2,5l0,14l-5,10l-5,5l-8,4l-5,1l-8,0l-11,-4l-8,-7l-4,-10l0,-12l3,-8l6,-7l8,-5l1,-223l6,-8l10,-11l9,-11l12,-15l2,0l2,-4l9,-11l6,-7l1,-137l0,-281l-6,-2l-6,-5l-6,-11l-1,-4l0,-9l3,-9l6,-8l6,-4l6,-2zm5,16l-6,3l-3,3l-1,8l3,6l7,3l7,-1l5,-5l1,-2l-1,-9l-6,-5l-6,-1zm-59,761l-6,5l0,11l7,6l6,0l6,-4l2,-3l0,-9l-4,-5l-2,-1l-9,0z" fill="#eaebff" id="svg_6"></path>
  <path d="m299,397l15,0l12,6l6,8l3,10l-1,11l-5,9l-9,8l-9,3l-7,0l-10,-1l-11,13l-12,14l-11,13l-9,11l-13,15l-11,13l-7,8l-11,13l-9,11l-9,10l-9,11l-14,16l-14,17l-7,7l-6,9l-1,22l0,37l5,2l8,7l5,10l1,9l-3,10l-13,13l-2,1l-1,40l-1,139l-17,0l0,-177l-10,-8l-7,-9l-2,-5l0,-12l3,-8l8,-9l7,-4l1,-61l5,-9l9,-10l8,-10l10,-11l9,-11l24,-28l11,-13l10,-12l14,-16l9,-11l11,-13l9,-10l9,-11l11,-12l7,-9l3,-4l-1,-7l-1,-4l0,-8l4,-11l5,-5l6,-5l5,-2zm4,16l-6,5l-1,2l0,7l4,6l4,2l9,-1l5,-6l0,-9l-5,-5l-2,-1l-8,0zm-176,292l-6,4l-2,3l0,8l4,6l3,2l8,0l6,-5l2,-5l-1,-7l-6,-5l-2,-1l-6,0z" fill="#eaebff" id="svg_12"></path>
  <path d="m315,599l7,6l7,9l11,13l9,11l13,15l11,14l10,11l10,13l10,11l7,9l0,2l72,1l8,7l9,10l11,14l9,10l9,11l13,16l8,10l9,10l8,10l11,13l4,6l5,-1l16,0l8,4l7,8l4,11l0,8l-3,9l-4,6l-6,5l-9,3l-13,0l-10,-5l-6,-7l-4,-8l0,-13l2,-5l-1,-5l-11,-13l-12,-14l-9,-11l-14,-17l-10,-12l-8,-10l-11,-13l-11,-14l-3,-4l-5,-1l-39,0l-29,-1l-6,-5l-9,-11l-9,-10l-27,-33l-12,-14l-11,-14l-12,-14l-9,-11l-7,-10l4,-5l8,-5zm276,247l-6,3l-3,5l0,7l5,6l5,2l6,-1l6,-5l1,-9l-4,-6l-4,-2l-6,0z" fill="#eaebff" id="svg_16"></path>
  <path d="m70,194l13,0l9,4l7,7l5,12l0,13l-5,10l-9,8l-3,2l0,199l10,7l6,10l1,3l0,14l-5,10l-7,7l-9,3l-14,0l-8,-4l-5,-4l-5,-9l-2,-7l0,-8l4,-11l7,-7l8,-5l0,-197l-13,-11l-4,-6l-2,-7l0,-9l4,-11l8,-8l9,-5zm2,17l-6,7l0,8l3,6l4,2l7,0l8,-7l1,-5l-3,-7l-5,-4l-9,0zm4,253l-7,3l-3,5l0,7l3,5l5,3l6,0l6,-4l2,-3l0,-8l-4,-6l-5,-2l-3,0z" fill="#eaebff" id="svg_17"></path>
  <path d="m501,271l2,3l-4,9l4,8l6,3l1,3l5,2l5,-2l1,3l-11,12l-9,11l-13,15l-22,26l-14,16l-9,11l-8,9l-7,8l-9,11l-9,10l-9,11l-24,28l-2,1l2,-4l3,-5l2,0l1,-4l8,-10l-2,-1l0,-2l-2,0l-4,-9l-2,-4l0,-10l1,-2l2,0l-1,-8l9,-11l12,-14l9,-11l2,0l2,-4l9,-10l9,-11l13,-15l12,-14l8,-10l7,-7l11,-14l8,-9l7,-9z" fill="#eaebff" id="svg_18"></path>
  <path d="m391,235l2,2l-5,36l-4,26l-4,-1l-10,-9l-4,-3l-4,1l-7,8l-7,9l-8,9l-7,9l-10,11l-9,11l-22,26l-13,15l-9,11l-8,10l-7,7l-7,9l-12,14l-9,11l-9,10l-7,9l-5,4l-7,0l-5,-6l1,-7l9,-10l13,-16l10,-11l9,-11l11,-13l12,-14l9,-10l11,-14l10,-11l9,-11l7,-8l9,-11l22,-26l9,-11l5,-6l0,-2l-11,-9l-5,-6l12,-5l25,-10l20,-7z" fill="#eaebff" id="svg_19"></path>
  <path d="m365,151l1,3l-1,5l2,6l4,1l0,3l4,1l2,3l6,-1l3,-1l0,4l-11,13l-9,11l-9,10l-9,11l-11,13l-9,11l-12,14l-9,10l-7,8l-5,4l-8,-1l-2,-3l0,-4l-7,-2l-3,-5l1,-2l2,0l0,-4l-4,4l-4,2l-2,-1l2,-4l10,-11l9,-11l11,-13l12,-14l10,-12l9,-11l11,-13l9,-10l5,-6l8,-7l1,-1z" fill="#eaebff" id="svg_20"></path>
  <path d="m455,769l4,1l13,16l12,14l11,13l7,8l4,-1l11,-9l3,-3l2,0l4,25l5,36l0,3l-5,-1l-20,-8l-28,-11l-6,-3l4,-5l10,-8l2,-3l-9,-11l-7,-8l-11,-13l-9,-11l-7,-9l1,-4l9,-8z" fill="#eaebff" id="svg_26"></path>
  <path d="m368,586l10,3l12,5l31,11l6,3l-2,4l-14,11l1,4l11,13l18,22l7,8l0,5l-9,7l-5,-1l-9,-10l-11,-14l-11,-13l-6,-8l-4,2l-12,12l-3,-1l-4,-15l-6,-40l0,-8z" fill="#eaebff" id="svg_27"></path>
  <path d="m481,343l2,1l-12,14l-9,11l-7,7l-7,9l-10,11l-7,9l-8,9l-7,8l-22,26l-7,8l-9,11l-3,2l2,-4l3,-5l2,0l1,-4l8,-10l-2,-1l0,-2l-2,0l-4,-9l-2,-4l0,-10l1,-2l2,0l-1,-8l9,-11l12,-14l9,-11l2,0l2,-4l7,-8l1,2l-1,6l10,3l7,6l4,2l5,-3l6,-9l11,-11l3,-5l6,-5l5,-5z" fill="#eaebff" id="svg_28"></path>
  <path d="m69,34l16,1l1,1l0,142l-1,1l-16,0l-1,-1l0,-141l1,-3z" fill="#eaebff" id="svg_29"></path>
  <path d="m276,259l2,0l-1,9l6,3l3,0l0,5l5,3l5,-1l3,0l-9,10l-9,11l-9,10l-9,11l-7,8l-5,5l-2,0l-6,5l-2,0l-2,-7l0,-8l-3,-5l0,-5l-2,0l-2,-4l-3,-1l7,-7l10,-13l10,-11l8,-10l5,-4l3,0l4,-4z" fill="#eaebff" id="svg_31"></path>
  <path d="m365,151l1,3l-1,5l2,6l4,1l0,3l4,1l2,3l6,-1l3,-1l0,4l-11,13l-9,11l-5,6l-4,2l-15,14l-3,0l0,6l-3,2l-3,0l-1,-5l-1,-3l-5,-2l-3,-3l-1,-10l4,-7l1,-3l-2,-1l9,-10l7,-9l10,-11l5,-6l8,-7l1,-1z" fill="#eaebff" id="svg_33"></path>
  <path d="m382,411l2,0l0,7l-2,0l0,12l4,7l1,6l2,0l0,2l3,1l-9,11l-1,3l-2,0l-2,5l-2,4l-6,8l-11,12l-4,4l0,-3l-9,6l-1,5l-3,0l-1,3l-2,-1l2,-7l2,0l2,-4l-3,-10l-1,-9l0,-2l0,-3l0,-5l-3,0l9,-10l10,-13l10,-11l7,-9l8,-9z" fill="#eaebff" id="svg_35"></path>
  <path d="m180,219l1,0l1,10l0,180l3,0l-1,4l-4,4l0,-198z" fill="#eaebff" id="svg_48"></path>
  <path d="m447,335l2,0l-1,7l-1,2l-3,0l0,2l-6,5l-3,5l-6,5l-3,-1l9,-11l12,-14z" fill="#eaebff" id="svg_49"></path>
  <path d="m385,455l1,2l-8,10l-3,2l2,-4l3,-5l2,0l2,-4l1,-1z" fill="#eaebff" id="svg_50"></path>
  <path d="m181,403l1,0l0,6l3,0l-1,4l-4,4l1,-14z" fill="#eaebff" id="svg_51"></path>
  <path d="m473,305l2,0l-2,4l-6,6l-2,0l2,-4l6,-6z" fill="#eaebff" id="svg_52"></path>
 </g>

</svg></svg></g></g></svg></g></svg>